<svg width="1000" height="600" xmlns="http://www.w3.org/2000/svg"><defs><linearGradient id="a" gradientTransform="rotate(90)"><stop offset="5%" stop-color="#a973bc"/><stop offset="95%" stop-color="#be96cc"/></linearGradient><linearGradient id="b" gradientTransform="rotate(90)"><stop offset="5%" stop-color="#672381"/><stop offset="95%" stop-color="#8d5aa0"/></linearGradient><linearGradient id="c" gradientTransform="rotate(90)"><stop offset="5%" stop-color="#3b1349"/><stop offset="95%" stop-color="#6c4e76"/></linearGradient><linearGradient id="d" gradientTransform="rotate(90)"><stop offset="5%" stop-color="#0e0310"/><stop offset="95%" stop-color="#4a424b"/></linearGradient></defs><path fill="#eac2f7" d="M0 0h1000v600H0z"/><path d="M0 120c32.596 3.714 65.192 7.429 92 4 26.808-3.429 47.828-14 73-23 25.172-9 54.497-16.427 83-14 28.503 2.427 56.185 14.708 87 26 30.815 11.292 64.764 21.597 93 18 28.236-3.597 50.76-21.094 74-19 23.24 2.094 47.197 23.778 72 26 24.803 2.222 50.453-15.018 84-20 33.547-4.982 74.992 2.293 101-1 26.008-3.293 36.58-17.156 64-18 27.42-.844 71.692 11.33 104 17 32.308 5.67 52.654 4.835 113 4l-40 480H0Z" fill="url(#a)"/><path d="M0 240c22.737-10.637 45.473-21.273 74-25 28.527-3.727 62.844-.544 94 12s59.15 34.45 87 32c27.85-2.45 55.557-29.254 81-34 25.443-4.746 48.624 12.566 76 24 27.376 11.434 58.948 16.988 91 14 32.052-2.988 64.583-14.52 92-15 27.417-.48 49.72 10.092 74 8 24.28-2.092 50.54-16.85 78-23 27.46-6.15 56.124-3.694 87-4 30.876-.306 63.965-3.373 92-2 28.035 1.373 51.018 7.187 114 13l-40 360H0Z" fill="url(#b)"/><path d="M0 360c21.405 9.772 42.81 19.545 73 26 30.19 6.455 69.165 9.594 100 2 30.835-7.594 53.53-25.921 82-37s62.713-14.91 90-15c27.287-.09 47.616 3.56 75 8 27.384 4.44 61.821 9.668 89 8 27.179-1.668 47.098-10.232 70-2s48.786 33.261 76 28c27.214-5.261 55.758-40.812 89-42 33.242-1.188 71.18 31.988 99 41 27.82 9.012 45.52-6.14 70-13 24.48-6.86 55.74-5.43 127-4l-40 240H0Z" fill="url(#c)"/><path d="M0 480c28.38-13.116 56.76-26.233 81-27 24.24-.767 44.338 10.814 73 20s65.889 15.976 95 19c29.111 3.024 50.108 2.28 79-6 28.892-8.28 65.68-24.099 97-29 31.32-4.901 57.171 1.115 84 11s54.634 23.637 78 28c23.366 4.363 42.291-.665 69-10 26.709-9.335 61.2-22.976 92-27 30.8-4.024 57.908 1.57 84 0s51.17-10.306 79-8c27.83 2.306 58.415 15.653 129 29l-40 120H0Z" fill="url(#d)"/></svg>